# This file uses centimeters as units for non-parametric coordinates.

mtllib simple_water_plane.mtl
g default
v -12.015148 -0.017147 12.025234
v 12.055441 0.055065 12.025234
v -12.015148 0.033477 -12.015148
v 12.055441 0.080317 -12.015148
v 0.020146 -0.015349 -12.015148
v 12.055441 -0.082943 0.005043
v -12.015148 -0.077171 0.005043
v 0.020146 -0.030250 12.025234
v 0.020146 0.000000 0.005043
v -2.386913 -0.080850 0.005043
v -4.793972 -0.074918 0.005043
v -7.201031 0.279911 0.005043
v -9.608089 -0.429766 0.005043
v 2.427205 -0.357100 0.005043
v 4.834264 -0.285611 0.005043
v 7.241323 -0.512065 0.005043
v 9.648382 0.201568 0.005043
v 0.020146 -0.334554 -2.398995
v 0.020146 -0.241499 -4.803034
v 0.020146 -0.472080 -7.207072
v 0.020146 0.379411 -9.611110
v 0.020146 0.273252 9.621196
v 0.020146 0.612241 7.217157
v 0.020146 0.209585 4.813119
v 0.020146 -0.277492 2.409081
v 2.427205 -0.229473 12.025234
v 4.834264 -0.543304 12.025234
v 7.241323 -0.135338 12.025234
v 9.648382 0.078429 12.025234
v -12.015148 0.246478 -2.398995
v -12.015149 0.357847 -4.803034
v -12.015148 -0.567654 -7.207072
v -12.015148 -0.246891 -9.611110
v 12.055441 -0.659622 -2.398995
v 12.055442 -0.219386 -4.803034
v 12.055441 0.007970 -7.207072
v 12.055441 -0.003898 -9.611110
v 2.427205 -0.159438 -12.015148
v 4.834264 -0.338015 -12.015148
v 7.241323 -0.283065 -12.015148
v 9.648382 -0.039621 -12.015148
v -9.608089 0.256332 -12.015148
v -7.201031 0.190358 -12.015148
v -4.793971 -0.339606 -12.015148
v -2.386912 -0.330935 -12.015148
v 12.055441 0.169996 9.621196
v 12.055442 0.295446 7.217157
v 12.055441 0.436913 4.813119
v 12.055441 -0.020871 2.409081
v -12.015148 -0.326473 9.621196
v -12.015149 0.143640 7.217157
v -12.015148 -0.599064 4.813119
v -12.015148 -0.073788 2.409081
v -9.608089 -0.409602 12.025234
v -7.201031 -0.450628 12.025234
v -4.793971 -0.566948 12.025234
v -2.386912 0.254610 12.025234
v -2.386913 -0.089715 -2.398995
v -2.386913 0.118654 -4.803034
v -2.386912 -0.338621 -7.207072
v -2.386912 -0.301957 -9.611110
v -4.793972 -0.093780 -2.398995
v -4.793972 0.364196 -4.803034
v -4.793971 0.734277 -7.207072
v -4.793971 0.459466 -9.611110
v -7.201031 -0.122289 -2.398995
v -7.201031 -0.363185 -4.803034
v -7.201031 -0.636862 -7.207072
v -7.201031 -0.239772 -9.611110
v -9.608089 0.726936 -2.398995
v -9.608089 0.006098 -4.803034
v -9.608089 -0.325797 -7.207072
v -9.608089 0.369473 -9.611110
v 2.427205 -0.243314 2.409081
v 2.427205 -0.093524 4.813119
v 2.427205 -0.085272 7.217157
v 2.427205 -0.158329 9.621196
v 4.834264 0.413951 2.409081
v 4.834264 0.086700 4.813119
v 4.834264 0.311351 7.217157
v 4.834264 0.392686 9.621196
v 7.241323 -0.828958 2.409081
v 7.241323 -0.564518 4.813119
v 7.241323 -0.050529 7.217157
v 7.241323 -0.041802 9.621196
v 9.648382 0.229369 2.409081
v 9.648382 -0.449817 4.813119
v 9.648382 0.578676 7.217157
v 9.648382 0.078385 9.621196
v 2.427205 0.266055 -2.398995
v 4.834264 0.131900 -2.398995
v 7.241323 0.350501 -2.398995
v 9.648382 0.330166 -2.398995
v 2.427206 0.733622 -4.803034
v 4.834265 0.270280 -4.803034
v 7.241324 0.238990 -4.803034
v 9.648383 0.370214 -4.803034
v 2.427205 -0.430636 -7.207072
v 4.834264 -0.991156 -7.207073
v 7.241323 0.283628 -7.207072
v 9.648382 0.223054 -7.207072
v 2.427205 -0.712556 -9.611110
v 4.834264 0.558159 -9.611110
v 7.241323 -0.735922 -9.611110
v 9.648382 -0.129161 -9.611110
v -2.386912 -0.123441 9.621196
v -2.386913 0.098713 7.217157
v -2.386913 -0.242645 4.813119
v -2.386913 0.388929 2.409081
v -4.793971 -0.535349 9.621196
v -4.793972 -0.718452 7.217157
v -4.793972 0.008519 4.813119
v -4.793972 -0.042094 2.409081
v -7.201031 -0.117239 9.621196
v -7.201031 0.744216 7.217157
v -7.201031 0.113104 4.813119
v -7.201031 0.205862 2.409081
v -9.608089 0.219733 9.621196
v -9.608089 0.572513 7.217157
v -9.608089 0.376401 4.813119
v -9.608089 -0.695787 2.409081
vt 0.000000 0.000000
vt 1.000000 0.000000
vt 0.000000 0.998745
vt 1.000000 0.998745
vt 0.500000 0.998745
vt 1.000000 0.499373
vt 0.000000 0.499373
vt 0.500000 0.000000
vt 0.500000 0.499373
vt 0.400000 0.499373
vt 0.300000 0.499373
vt 0.200000 0.499373
vt 0.100000 0.499373
vt 0.600000 0.499373
vt 0.700000 0.499373
vt 0.800000 0.499373
vt 0.900000 0.499373
vt 0.500000 0.599247
vt 0.500000 0.699122
vt 0.500000 0.798996
vt 0.500000 0.898871
vt 0.500000 0.099875
vt 0.500000 0.199749
vt 0.500000 0.299624
vt 0.500000 0.399498
vt 0.600000 0.000000
vt 0.700000 0.000000
vt 0.800000 0.000000
vt 0.900000 0.000000
vt 0.000000 0.599247
vt 0.000000 0.699122
vt 0.000000 0.798996
vt 0.000000 0.898871
vt 1.000000 0.599247
vt 1.000000 0.699122
vt 1.000000 0.798996
vt 1.000000 0.898871
vt 0.600000 0.998745
vt 0.700000 0.998745
vt 0.800000 0.998745
vt 0.900000 0.998745
vt 0.100000 0.998745
vt 0.200000 0.998745
vt 0.300000 0.998745
vt 0.400000 0.998745
vt 1.000000 0.099875
vt 1.000000 0.199749
vt 1.000000 0.299624
vt 1.000000 0.399498
vt 0.000000 0.099875
vt 0.000000 0.199749
vt 0.000000 0.299624
vt 0.000000 0.399498
vt 0.100000 0.000000
vt 0.200000 0.000000
vt 0.300000 0.000000
vt 0.400000 0.000000
vt 0.400000 0.599247
vt 0.400000 0.699122
vt 0.400000 0.798996
vt 0.400000 0.898871
vt 0.300000 0.599247
vt 0.300000 0.699122
vt 0.300000 0.798996
vt 0.300000 0.898871
vt 0.200000 0.599247
vt 0.200000 0.699122
vt 0.200000 0.798996
vt 0.200000 0.898871
vt 0.100000 0.599247
vt 0.100000 0.699122
vt 0.100000 0.798996
vt 0.100000 0.898871
vt 0.600000 0.399498
vt 0.600000 0.299624
vt 0.600000 0.199749
vt 0.600000 0.099875
vt 0.700000 0.399498
vt 0.700000 0.299624
vt 0.700000 0.199749
vt 0.700000 0.099875
vt 0.800000 0.399498
vt 0.800000 0.299624
vt 0.800000 0.199749
vt 0.800000 0.099875
vt 0.900000 0.399498
vt 0.900000 0.299624
vt 0.900000 0.199749
vt 0.900000 0.099875
vt 0.600000 0.599247
vt 0.700000 0.599247
vt 0.800000 0.599247
vt 0.900000 0.599247
vt 0.600000 0.699122
vt 0.700000 0.699122
vt 0.800000 0.699122
vt 0.900000 0.699122
vt 0.600000 0.798996
vt 0.700000 0.798996
vt 0.800000 0.798996
vt 0.900000 0.798996
vt 0.600000 0.898871
vt 0.700000 0.898871
vt 0.800000 0.898871
vt 0.900000 0.898871
vt 0.400000 0.099875
vt 0.400000 0.199749
vt 0.400000 0.299624
vt 0.400000 0.399498
vt 0.300000 0.099875
vt 0.300000 0.199749
vt 0.300000 0.299624
vt 0.300000 0.399498
vt 0.200000 0.099875
vt 0.200000 0.199749
vt 0.200000 0.299624
vt 0.200000 0.399498
vt 0.100000 0.099875
vt 0.100000 0.199749
vt 0.100000 0.299624
vt 0.100000 0.399498
vn -0.031851 0.997286 0.066376
vn 0.023871 0.990811 0.133129
vn -0.031202 0.984773 0.171022
vn -0.115260 0.986421 0.116999
vn 0.023985 0.999326 -0.027796
vn 0.035944 0.997545 0.060097
vn 0.025882 0.995850 0.087248
vn 0.017253 0.999676 -0.018703
vn 0.185076 0.981170 -0.055241
vn -0.034142 0.998663 0.038816
vn -0.154678 0.987067 0.042107
vn -0.009708 0.999862 0.013448
vn 0.085524 0.980230 0.178424
vn -0.034290 0.989057 0.143495
vn 0.056600 0.997857 0.032838
vn -0.026523 0.995355 0.092553
vn -0.025051 0.991319 -0.129067
vn 0.054068 0.998049 -0.031211
vn -0.054335 0.997643 0.041906
vn 0.052573 0.998136 0.031004
vn 0.016819 0.998325 -0.055349
vn 0.043205 0.999056 -0.004573
vn -0.077910 0.994900 -0.064071
vn 0.137210 0.990485 0.010581
vn -0.000956 0.999452 -0.033097
vn 0.157184 0.987548 -0.006436
vn 0.062073 0.990302 -0.124297
vn 0.016341 0.997699 -0.065799
vn -0.009722 0.999698 0.022593
vn 0.026208 0.998538 -0.047281
vn -0.068321 0.996619 0.045646
vn -0.051081 0.998678 -0.005680
vn 0.053675 0.998549 -0.004416
vn -0.035982 0.997419 0.062139
vn 0.049352 0.998497 -0.023823
vn -0.028634 0.998917 0.036680
vn -0.051171 0.996581 -0.064875
vn -0.127307 0.991196 0.036394
vn -0.017161 0.998588 0.050268
vn -0.005437 0.991226 0.132065
vn 0.097131 0.979617 -0.175830
vn 0.044286 0.998923 0.013839
vn -0.172361 0.977454 0.121963
vn -0.171634 0.984565 0.034244
vn -0.078199 0.996666 -0.023286
vn -0.002276 0.981851 -0.189643
vn 0.040255 0.989013 0.142245
vn 0.029793 0.995256 0.092618
vn 0.038026 0.997062 0.066492
vn 0.054409 0.998021 0.031518
vn 0.072055 0.997024 -0.027399
vn -0.050327 0.997048 -0.057982
vn -0.030448 0.998924 0.034985
vn 0.026065 0.995943 -0.086128
vn -0.007561 0.998329 -0.057288
vn 0.012475 0.999879 -0.009264
vn 0.031519 0.999427 -0.012348
vn -0.021521 0.978074 0.207142
vn -0.018517 0.995023 0.097907
vn 0.089803 0.994778 -0.048491
vn 0.042718 0.997396 0.058113
vn 0.078867 0.996163 -0.037928
vn 0.014604 0.998365 -0.055263
vn -0.031580 0.992719 0.116239
vn -0.013464 0.996773 0.079133
vn 0.021154 0.999573 0.020169
vn -0.050961 0.992679 0.109504
vn 0.051395 0.994455 -0.091744
vn 0.015877 0.994922 -0.099387
vn -0.041727 0.998895 0.021645
vn -0.049953 0.996389 0.068659
vn -0.162526 0.982403 -0.092027
vn -0.097214 0.993140 -0.064976
vn 0.012807 0.996961 0.076849
vn -0.014171 0.999614 0.023885
vn -0.042385 0.998750 -0.026489
vn -0.127369 0.989372 -0.070140
vn 0.284356 0.958711 0.003839
vn 0.105405 0.993188 0.049680
vn -0.061471 0.989761 0.128820
vn 0.024593 0.988038 0.152237
vn -0.050904 0.992155 0.114178
vn 0.241475 0.968714 0.057294
vn 0.113449 0.993344 0.019947
vn -0.046869 0.990134 -0.132051
vn 0.012979 0.987244 -0.158687
vn -0.083263 0.994029 -0.070525
vn 0.092651 0.995268 -0.029266
vn 0.014414 0.995738 -0.091096
vn 0.021300 0.993649 -0.110492
vn -0.043798 0.994136 -0.098870
vn -0.097214 0.988333 -0.117248
vn -0.016150 0.999674 -0.019758
vn -0.080653 0.995288 -0.053829
vn -0.026881 0.998487 0.047968
vn -0.008430 0.999178 -0.039660
vn -0.112624 0.990899 0.073728
vn -0.050835 0.998056 0.036068
vn 0.038791 0.999186 0.011037
vn 0.016602 0.996531 -0.081552
vn 0.009691 0.999952 0.001334
vn -0.179118 0.983789 0.008676
vn -0.137077 0.989625 -0.043035
vn -0.187505 0.982197 0.011433
vn -0.078001 0.996771 0.019092
vn 0.018189 0.999800 0.008298
vn -0.002209 0.999261 0.038363
vn -0.072202 0.997388 0.002008
vn 0.081901 0.994679 0.062496
vn 0.062164 0.996436 0.057016
vn -0.067347 0.997328 -0.028290
vn 0.152681 0.974775 0.162796
vn 0.093512 0.986285 0.136003
vn 0.181336 0.981725 0.057740
vn 0.071667 0.993752 -0.085557
vn -0.082947 0.995573 -0.044208
vn -0.108424 0.994005 0.014070
vn -0.118787 0.978466 -0.168802
vn 0.066707 0.997379 -0.028041
vn -0.176496 0.972822 -0.149890
vn -0.240121 0.970660 -0.012700
s 1
g pPlane1
usemtl initialShadingGroup
f 1/1/1 54/54/2 118/118/3 50/50/4
f 5/5/5 21/21/6 102/102/7 38/38/8
f 6/6/9 17/17/10 86/86/11 49/49/12
f 7/7/13 13/13/14 70/70/15 30/30/16
f 45/45/17 61/61/18 21/21/6 5/5/5
f 18/18/19 58/58/20 10/10/21 9/9/22
f 19/19/23 59/59/24 58/58/20 18/18/19
f 20/20/25 60/60/26 59/59/24 19/19/23
f 21/21/6 61/61/18 60/60/26 20/20/25
f 44/44/27 65/65/28 61/61/18 45/45/17
f 58/58/20 62/62/29 11/11/30 10/10/21
f 59/59/24 63/63/31 62/62/29 58/58/20
f 60/60/26 64/64/32 63/63/31 59/59/24
f 61/61/18 65/65/28 64/64/32 60/60/26
f 43/43/33 69/69/34 65/65/28 44/44/27
f 62/62/29 66/66/35 12/12/36 11/11/30
f 63/63/31 67/67/37 66/66/35 62/62/29
f 64/64/32 68/68/38 67/67/37 63/63/31
f 65/65/28 69/69/34 68/68/38 64/64/32
f 42/42/39 73/73/40 69/69/34 43/43/33
f 66/66/35 70/70/15 13/13/14 12/12/36
f 67/67/37 71/71/41 70/70/15 66/66/35
f 68/68/38 72/72/42 71/71/41 67/67/37
f 69/69/34 73/73/40 72/72/42 68/68/38
f 33/33/43 73/73/40 42/42/39 3/3/44
f 32/32/45 72/72/42 73/73/40 33/33/43
f 31/31/46 71/71/41 72/72/42 32/32/45
f 30/30/16 70/70/15 71/71/41 31/31/46
f 26/26/47 77/77/48 22/22/49 8/8/50
f 25/25/51 74/74/52 14/14/53 9/9/22
f 24/24/54 75/75/55 74/74/52 25/25/51
f 23/23/56 76/76/57 75/75/55 24/24/54
f 22/22/49 77/77/48 76/76/57 23/23/56
f 27/27/58 81/81/59 77/77/48 26/26/47
f 74/74/52 78/78/60 15/15/61 14/14/53
f 75/75/55 79/79/62 78/78/60 74/74/52
f 76/76/57 80/80/63 79/79/62 75/75/55
f 77/77/48 81/81/59 80/80/63 76/76/57
f 28/28/64 85/85/65 81/81/59 27/27/58
f 78/78/60 82/82/66 16/16/67 15/15/61
f 79/79/62 83/83/68 82/82/66 78/78/60
f 80/80/63 84/84/69 83/83/68 79/79/62
f 81/81/59 85/85/65 84/84/69 80/80/63
f 29/29/70 89/89/71 85/85/65 28/28/64
f 82/82/66 86/86/11 17/17/10 16/16/67
f 83/83/68 87/87/72 86/86/11 82/82/66
f 84/84/69 88/88/73 87/87/72 83/83/68
f 85/85/65 89/89/71 88/88/73 84/84/69
f 46/46/74 89/89/71 29/29/70 2/2/75
f 47/47/76 88/88/73 89/89/71 46/46/74
f 48/48/77 87/87/72 88/88/73 47/47/76
f 49/49/12 86/86/11 87/87/72 48/48/77
f 34/34/78 93/93/79 17/17/10 6/6/9
f 14/14/53 90/90/80 18/18/19 9/9/22
f 15/15/61 91/91/81 90/90/80 14/14/53
f 16/16/67 92/92/82 91/91/81 15/15/61
f 17/17/10 93/93/79 92/92/82 16/16/67
f 35/35/83 97/97/84 93/93/79 34/34/78
f 90/90/80 94/94/85 19/19/23 18/18/19
f 91/91/81 95/95/86 94/94/85 90/90/80
f 92/92/82 96/96/87 95/95/86 91/91/81
f 93/93/79 97/97/84 96/96/87 92/92/82
f 36/36/88 101/101/89 97/97/84 35/35/83
f 94/94/85 98/98/90 20/20/25 19/19/23
f 95/95/86 99/99/91 98/98/90 94/94/85
f 96/96/87 100/100/92 99/99/91 95/95/86
f 97/97/84 101/101/89 100/100/92 96/96/87
f 37/37/93 105/105/94 101/101/89 36/36/88
f 98/98/90 102/102/7 21/21/6 20/20/25
f 99/99/91 103/103/95 102/102/7 98/98/90
f 100/100/92 104/104/96 103/103/95 99/99/91
f 101/101/89 105/105/94 104/104/96 100/100/92
f 41/41/97 105/105/94 37/37/93 4/4/98
f 40/40/99 104/104/96 105/105/94 41/41/97
f 39/39/100 103/103/95 104/104/96 40/40/99
f 38/38/8 102/102/7 103/103/95 39/39/100
f 10/10/21 109/109/101 25/25/51 9/9/22
f 22/22/49 106/106/102 57/57/103 8/8/50
f 23/23/56 107/107/104 106/106/102 22/22/49
f 24/24/54 108/108/105 107/107/104 23/23/56
f 25/25/51 109/109/101 108/108/105 24/24/54
f 11/11/30 113/113/106 109/109/101 10/10/21
f 106/106/102 110/110/107 56/56/108 57/57/103
f 107/107/104 111/111/109 110/110/107 106/106/102
f 108/108/105 112/112/110 111/111/109 107/107/104
f 109/109/101 113/113/106 112/112/110 108/108/105
f 12/12/36 117/117/111 113/113/106 11/11/30
f 110/110/107 114/114/112 55/55/113 56/56/108
f 111/111/109 115/115/114 114/114/112 110/110/107
f 112/112/110 116/116/115 115/115/114 111/111/109
f 113/113/106 117/117/111 116/116/115 112/112/110
f 13/13/14 121/121/116 117/117/111 12/12/36
f 114/114/112 118/118/3 54/54/2 55/55/113
f 115/115/114 119/119/117 118/118/3 114/114/112
f 116/116/115 120/120/118 119/119/117 115/115/114
f 117/117/111 121/121/116 120/120/118 116/116/115
f 53/53/119 121/121/116 13/13/14 7/7/13
f 52/52/120 120/120/118 121/121/116 53/53/119
f 51/51/121 119/119/117 120/120/118 52/52/120
f 50/50/4 118/118/3 119/119/117 51/51/121
